# xmcd
#
# Track frame offsets:
#	150
#	8135
#	18783
#	35821
#	52421
#	75221
#	88515
#	107447
#	128735
#	147404
#	166241
#	185323
#
# Disc length: 2789 seconds
#
# Revision: 1
# Processed by: cddbd v1.5.1PL0 Copyright (c) Steve Scherf et al.
# Submitted via: audiograbber 1.82.01
#
DISCID=8e0ae30c
DTITLE=Robert Cray - 1978-11-26 - Community Center For Performing Arts,Eugene, 
DTITLE=OR
DYEAR=1900
DGENRE=
TTITLE0=Robert Cray - DJ
TTITLE1=Robert Cray - Hard Times
TTITLE2=Robert Cray - Move on Back
TTITLE3=Robert Cray - Losin' hand
TTITLE4=Robert Cray - Where Can a Man Go
TTITLE5=Robert Cray - Sooth Me
TTITLE6=Robert Cray - In the Night
TTITLE7=Robert Cray - Times Are Gettin' Tough
TTITLE8=Robert Cray - Up and Jumpin'
TTITLE9=Robert Cray - Early One Mornin'
TTITLE10=Robert Cray - I'm Gonna Cry
TTITLE11=Robert Cray - Don't Lose Your Cool
EXTD=
EXTT0=
EXTT1=
EXTT2=
EXTT3=
EXTT4=
EXTT5=
EXTT6=
EXTT7=
EXTT8=
EXTT9=
EXTT10=
EXTT11=
PLAYORDER=
